HIERARCHY
ROOT Hips
{
	OFFSET -0.001795 -0.223333 0.028219
	CHANNELS 6 Xposition Yposition Zposition Zrotation Yrotation Xrotation 
	JOINT LeftUpLeg
	{
		OFFSET 0.069520 -0.091406 -0.006815
		CHANNELS 3 Zrotation Yrotation Xrotation
		JOINT LeftLeg
		{
			OFFSET 0.034277 -0.375199 -0.004496
			CHANNELS 3 Zrotation Yrotation Xrotation
			JOINT LeftFoot
			{
				OFFSET -0.013596 -0.397961 -0.043693
				CHANNELS 3 Zrotation Yrotation Xrotation
				JOINT LeftToe
				{
					OFFSET 0.026358 -0.055791 0.119288
					CHANNELS 3 Zrotation Yrotation Xrotation
					End Site
					{
						OFFSET 0.000000 0.000000 0.000000
					}
				}
			}
		}
	}
	JOINT RightUpLeg
	{
		OFFSET -0.067670 -0.090522 -0.004320
		CHANNELS 3 Zrotation Yrotation Xrotation
		JOINT RightLeg
		{
			OFFSET -0.038290 -0.382569 -0.008850
			CHANNELS 3 Zrotation Yrotation Xrotation
			JOINT RightFoot
			{
				OFFSET 0.015774 -0.398415 -0.042312
				CHANNELS 3 Zrotation Yrotation Xrotation
				JOINT RightToe
				{
					OFFSET -0.025372 -0.048144 0.123348
					CHANNELS 3 Zrotation Yrotation Xrotation
					End Site
					{
						OFFSET 0.000000 0.000000 0.000000
					}
				}
			}
		}
	}
	JOINT Spine
	{
		OFFSET -0.002533 0.108963 -0.026696
		CHANNELS 3 Zrotation Yrotation Xrotation
		JOINT Spine1
		{
			OFFSET 0.005487 0.135180 0.001092
			CHANNELS 3 Zrotation Yrotation Xrotation
			JOINT Spine2
			{
				OFFSET 0.001457 0.052922 0.025425
				CHANNELS 3 Zrotation Yrotation Xrotation
				JOINT Neck
				{
					OFFSET -0.002778 0.213870 -0.042857
					CHANNELS 3 Zrotation Yrotation Xrotation
					JOINT Head
					{
						OFFSET 0.005152 0.064970 0.051349
						CHANNELS 3 Zrotation Yrotation Xrotation
						End Site
						{
							OFFSET 0.000000 0.000000 0.000000
						}
					}
				}
				JOINT LeftShoulder
				{
					OFFSET 0.078845 0.121749 -0.034090
					CHANNELS 3 Zrotation Yrotation Xrotation
					JOINT LeftArm
					{
						OFFSET 0.090977 0.030469 -0.008868
						CHANNELS 3 Zrotation Yrotation Xrotation
						JOINT LeftForeArm
						{
							OFFSET 0.259612 -0.012772 -0.027456
							CHANNELS 3 Zrotation Yrotation Xrotation
							JOINT LeftHand
							{
								OFFSET 0.249234 0.008986 -0.001171
								CHANNELS 3 Zrotation Yrotation Xrotation
								End Site
								{
									OFFSET 0.000000 0.000000 0.000000
								}
							}
						}
					}
				}
				JOINT RightShoulder
				{
					OFFSET -0.081759 0.118833 -0.038615
					CHANNELS 3 Zrotation Yrotation Xrotation
					JOINT RightArm
					{
						OFFSET -0.096012 0.032551 -0.009143
						CHANNELS 3 Zrotation Yrotation Xrotation
						JOINT RightForeArm
						{
							OFFSET -0.253742 -0.013329 -0.021401
							CHANNELS 3 Zrotation Yrotation Xrotation
							JOINT RightHand
							{
								OFFSET -0.255298 0.007772 -0.005559
								CHANNELS 3 Zrotation Yrotation Xrotation
								End Site
								{
									OFFSET 0.000000 0.000000 0.000000
								}
							}
						}
					}
				}
			}
		}
	}
}
MOTION
Frames: 16
Frame Time: 0.050000
-0.229969 0.842941 0.181800 5.553277 25.392306 17.646405 13.599687 -3.904680 -41.866892 -20.388157 3.565661 40.123650 9.663930 19.471171 -11.756749 0.000000 0.000000 0.000000 -8.012090 -5.532478 -52.812760 5.693057 -6.512878 49.660652 -10.536127 -25.037680 -3.249043 0.000000 0.000000 0.000000 -4.083008 -8.109433 57.008810 7.470901 -0.833778 -21.123303 8.960763 20.082554 30.705701 2.123733 4.977952 -32.508994 0.000000 0.000000 0.000000 -24.784185 -9.027366 -7.640769 -50.714231 0.299800 -5.404803 -43.233642 -69.712174 26.520408 0.000000 0.000000 0.000000 -3.483931 27.227390 10.533675 15.603394 36.923762 2.750709 -57.365093 0.766088 4.967161 0.000000 0.000000 0.000000 
-0.231190 0.846433 0.181327 5.085116 25.563460 17.198833 13.620320 -3.784025 -41.039901 -19.955147 3.316008 39.308284 9.541459 18.938789 -11.676536 0.000000 0.000000 0.000000 -7.440665 -5.019374 -51.808379 5.631417 -6.310765 48.195826 -10.646129 -25.277676 -2.928297 0.000000 0.000000 0.000000 -4.279271 -7.803141 56.200914 7.230925 -0.810890 -20.619011 9.093543 19.342354 30.736548 1.522243 5.166061 -32.600994 0.000000 0.000000 0.000000 -24.865746 -9.135484 -7.331726 -50.100249 -0.054790 -5.228746 -39.077683 -69.476187 23.667634 0.000000 0.000000 0.000000 -2.840246 27.554139 10.873381 17.841118 38.681531 3.589467 -61.893423 4.357526 3.510997 0.000000 0.000000 0.000000 
-0.231672 0.851335 0.180865 4.767553 25.964830 16.910366 13.313281 -3.800036 -40.332688 -19.337507 2.959115 38.728669 9.189030 17.802532 -11.327851 0.000000 0.000000 0.000000 -7.397726 -4.908522 -50.922810 5.898296 -6.369806 46.854776 -10.726989 -25.158855 -1.766769 0.000000 0.000000 0.000000 -4.466037 -7.601814 55.427747 7.421850 -0.888587 -20.258326 8.853314 18.797967 30.721014 0.943208 5.394403 -33.208049 0.000000 0.000000 0.000000 -24.170878 -8.851161 -7.104116 -50.473819 -0.516525 -5.273185 -35.433726 -69.086500 20.919291 0.000000 0.000000 0.000000 -1.844979 27.645009 11.342192 20.895008 40.469552 4.740126 -66.306139 8.785579 1.292037 0.000000 0.000000 0.000000 
-0.231728 0.858727 0.180199 4.544886 26.439015 16.689825 12.661607 -3.832294 -39.217306 -17.990847 2.317056 37.209756 8.947095 16.989683 -10.575281 0.000000 0.000000 0.000000 -7.323954 -4.661969 -49.420115 6.032989 -6.217060 44.613925 -10.778375 -25.071700 -0.862706 0.000000 0.000000 0.000000 -4.591331 -7.449821 54.663723 7.434033 -0.899550 -19.997386 9.072959 18.079265 30.807255 0.744510 5.423366 -32.670967 0.000000 0.000000 0.000000 -24.153292 -8.669731 -6.992373 -50.325210 -0.462605 -5.358442 -33.580714 -68.248325 19.481651 0.000000 0.000000 0.000000 -0.872258 27.335716 11.590031 24.253691 41.771277 5.981936 -69.866994 14.308362 -2.065604 0.000000 0.000000 0.000000 
-0.231522 0.867883 0.178993 4.206166 27.063314 16.512533 11.674068 -3.893865 -37.767269 -16.422708 1.623178 34.959168 8.341685 15.218391 -9.675809 0.000000 0.000000 0.000000 -7.267784 -4.414748 -47.605304 6.422223 -6.135215 41.846342 -10.847183 -24.835825 0.546862 0.000000 0.000000 0.000000 -4.689872 -7.312053 53.714359 7.838903 -1.068013 -19.258126 8.892141 17.878307 30.562301 0.531386 5.550585 -32.895459 0.000000 0.000000 0.000000 -23.853384 -8.130244 -7.238062 -50.219937 -0.460909 -5.386586 -33.779324 -67.969043 19.458973 0.000000 0.000000 0.000000 0.377186 27.248878 12.160283 27.371791 42.703889 7.144295 -72.935231 18.892341 -5.157465 0.000000 0.000000 0.000000 
-0.231165 0.877238 0.176898 3.911395 27.513702 16.529326 10.680291 -3.899518 -36.312019 -14.512447 0.963768 32.526183 7.883740 14.155663 -8.392170 0.000000 0.000000 0.000000 -7.423023 -4.191446 -45.747586 6.964113 -5.981072 38.668598 -11.101525 -25.135818 1.606467 0.000000 0.000000 0.000000 -4.731348 -7.126372 52.651910 8.030362 -1.107931 -19.272906 9.297637 17.525221 30.897036 0.553009 5.552295 -32.521825 0.000000 0.000000 0.000000 -23.861175 -7.755748 -7.487886 -50.006386 -0.239937 -5.476052 -34.111859 -67.048609 19.363591 0.000000 0.000000 0.000000 1.192728 26.951356 12.391881 29.756349 43.295772 8.065082 -74.475770 23.700624 -8.625948 0.000000 0.000000 0.000000 
-0.230523 0.885689 0.174133 3.839014 27.679533 16.601781 9.729310 -3.868898 -34.967252 -13.195904 0.625810 29.732252 7.331957 13.038438 -7.120098 0.000000 0.000000 0.000000 -7.551492 -4.008181 -44.403429 7.270871 -5.706594 36.035615 -11.181514 -24.938850 2.883476 0.000000 0.000000 0.000000 -4.727518 -6.938546 51.778234 8.266842 -1.225703 -18.668921 9.292112 17.605750 30.628172 0.340082 5.682417 -32.423142 0.000000 0.000000 0.000000 -23.863026 -7.793381 -7.556480 -49.183651 -0.279431 -5.279500 -34.222528 -66.914238 19.359367 0.000000 0.000000 0.000000 1.811822 27.131017 12.803450 30.969564 43.472764 8.511252 -75.438882 27.744962 -11.714706 0.000000 0.000000 0.000000 
-0.229652 0.893240 0.171110 3.708468 27.801607 16.921887 8.815229 -3.889790 -34.053349 -11.363156 0.223557 27.219815 6.758782 12.339258 -5.309205 0.000000 0.000000 0.000000 -7.734200 -3.838420 -43.071096 7.520494 -5.328139 33.116003 -11.301006 -24.874546 3.978991 0.000000 0.000000 0.000000 -4.863596 -6.616028 50.664152 8.787749 -1.392549 -18.412849 9.508849 17.753638 30.720554 0.181670 5.796129 -32.665287 0.000000 0.000000 0.000000 -23.655426 -7.850678 -7.655007 -49.054120 -0.285886 -5.238035 -33.319182 -66.334592 18.397920 0.000000 0.000000 0.000000 1.543839 27.238065 12.771162 32.258150 43.523199 9.108683 -75.403405 32.038022 -14.797382 0.000000 0.000000 0.000000 
-0.228672 0.899984 0.168450 3.718226 28.012631 16.770522 7.870466 -3.849334 -32.799648 -10.198379 0.019370 24.989459 6.253443 11.436066 -4.364880 0.000000 0.000000 0.000000 -7.881540 -3.662342 -41.612806 7.567054 -5.062979 31.189053 -11.166764 -24.418029 4.605619 0.000000 0.000000 0.000000 -4.815215 -6.547766 50.112039 8.847633 -1.470156 -17.818168 9.695545 17.870104 30.279878 0.346910 5.751881 -32.285626 0.000000 0.000000 0.000000 -23.829916 -8.283353 -7.550594 -48.032565 -0.434413 -4.910185 -30.072987 -66.172495 16.211660 0.000000 0.000000 0.000000 1.420434 27.466511 12.829027 32.583449 43.187435 9.180580 -74.186969 35.560721 -17.100194 0.000000 0.000000 0.000000 
-0.227841 0.905216 0.166491 3.605942 28.333411 16.618064 7.045676 -3.786430 -31.600872 -9.030462 -0.148241 22.823665 5.730745 10.857454 -2.941742 0.000000 0.000000 0.000000 -7.920420 -3.473727 -40.292700 7.480990 -4.745543 29.304872 -11.063622 -23.913244 5.575126 0.000000 0.000000 0.000000 -4.651981 -6.581276 49.646356 9.135610 -1.584515 -17.490725 9.623014 17.949224 30.134925 0.722833 5.613302 -31.898032 0.000000 0.000000 0.000000 -23.660597 -8.319184 -7.541369 -48.196437 -0.747009 -4.825512 -30.019091 -66.096824 16.071539 0.000000 0.000000 0.000000 1.682879 27.825259 13.145231 32.094889 43.742402 9.191451 -72.559364 37.645559 -18.225417 0.000000 0.000000 0.000000 
-0.227291 0.908961 0.165275 3.467303 28.253961 16.452190 6.858577 -3.657282 -30.775958 -8.348239 -0.200155 21.442123 5.408001 10.286476 -2.535920 0.000000 0.000000 0.000000 -7.789951 -3.228560 -39.388464 7.418841 -4.522669 28.151923 -10.918876 -23.563865 5.876043 0.000000 0.000000 0.000000 -4.343005 -6.512926 48.853283 8.819781 -1.539786 -17.078016 9.741630 17.817150 29.866342 0.664290 5.633495 -31.816562 0.000000 0.000000 0.000000 -23.391553 -8.542364 -7.285205 -48.142528 -1.087016 -4.715501 -28.392632 -65.850290 14.917654 0.000000 0.000000 0.000000 1.718549 28.266665 13.366648 31.742614 44.202282 9.226562 -69.718288 36.619527 -16.785385 0.000000 0.000000 0.000000 
-0.226962 0.911562 0.164558 3.213353 28.106002 16.243805 6.827577 -3.499365 -29.969015 -8.100054 -0.163036 20.240906 5.394544 10.564402 -1.856113 0.000000 0.000000 0.000000 -7.694972 -2.992726 -38.543901 7.554695 -4.374866 26.969722 -10.835131 -23.335408 6.234214 0.000000 0.000000 0.000000 -4.187116 -6.309224 47.892900 8.803390 -1.593553 -16.600809 9.700095 17.590447 29.661823 0.827460 5.549999 -32.147613 0.000000 0.000000 0.000000 -23.134057 -8.631035 -7.062682 -48.467529 -1.261116 -4.754986 -25.756841 -65.182374 13.048296 0.000000 0.000000 0.000000 2.399404 29.156655 14.099798 29.739484 45.020572 8.629484 -65.657687 33.782418 -14.175150 0.000000 0.000000 0.000000 
-0.226693 0.913492 0.164028 2.923959 27.842280 15.836468 6.816257 -3.311065 -29.047028 -7.694280 -0.168645 19.348402 5.386087 10.446403 -1.888323 0.000000 0.000000 0.000000 -7.442378 -2.688123 -37.765484 7.631446 -4.266769 26.234783 -10.950915 -23.501829 6.703268 0.000000 0.000000 0.000000 -4.035592 -6.136499 47.185597 8.600014 -1.578003 -16.236281 9.714016 17.524909 29.365370 1.142404 5.394871 -32.204381 0.000000 0.000000 0.000000 -22.861717 -8.895017 -6.692581 -48.929352 -1.604982 -4.774683 -25.790665 -64.470386 12.942610 0.000000 0.000000 0.000000 3.138533 29.949350 14.817931 26.979628 46.090943 7.806686 -61.219998 29.451086 -10.994924 0.000000 0.000000 0.000000 
-0.226276 0.915541 0.163556 2.700419 27.563006 15.436347 6.680538 -3.169274 -28.252638 -7.410608 -0.171828 18.767508 5.415259 10.539082 -1.711927 0.000000 0.000000 0.000000 -7.361911 -2.402154 -36.592103 7.806362 -4.129107 25.020442 -11.102107 -23.822493 6.896584 0.000000 0.000000 0.000000 -3.966097 -5.951191 46.556412 8.402041 -1.590786 -15.659228 9.631193 17.326970 28.788493 1.329075 5.279831 -32.796850 0.000000 0.000000 0.000000 -23.114978 -9.303067 -6.437888 -49.031742 -1.737380 -4.674946 -25.688182 -64.255785 12.903340 0.000000 0.000000 0.000000 3.196495 30.877763 15.250184 25.026018 46.730741 7.231425 -57.378651 24.601455 -8.012565 0.000000 0.000000 0.000000 
-0.225740 0.917422 0.163233 2.561749 27.355709 15.091916 6.257252 -3.084671 -27.523858 -6.724051 -0.254405 18.204882 5.317775 10.464066 -1.358795 0.000000 0.000000 0.000000 -7.320561 -2.198588 -35.656133 7.879257 -4.004378 24.115770 -11.308111 -24.195762 7.208958 0.000000 0.000000 0.000000 -3.787374 -5.881138 46.127791 8.185367 -1.528464 -15.625463 9.567989 17.020137 28.647019 1.398909 5.207876 -32.868646 0.000000 0.000000 0.000000 -23.426742 -9.768286 -6.131622 -49.452231 -1.969024 -4.631624 -25.997828 -63.903428 13.127050 0.000000 0.000000 0.000000 3.486858 31.372637 15.561507 23.032705 46.834919 6.432810 -54.573310 21.876464 -6.504468 0.000000 0.000000 0.000000 
-0.225051 0.919363 0.163179 2.291704 26.858742 14.761979 6.043798 -2.939051 -26.685431 -6.136895 -0.284691 17.405102 5.260877 10.310096 -1.331720 0.000000 0.000000 0.000000 -7.211801 -1.957559 -34.903604 7.855855 -3.830927 23.335176 -11.276560 -24.167862 7.356202 0.000000 0.000000 0.000000 -3.772101 -5.624657 45.475721 8.310220 -1.619893 -15.241336 8.969421 16.617618 28.179950 1.504766 5.102992 -33.415057 0.000000 0.000000 0.000000 -24.206243 -10.191516 -5.916484 -49.087552 -1.786855 -4.543996 -26.318865 -63.672997 13.495064 0.000000 0.000000 0.000000 4.192698 31.843195 16.069770 21.970095 46.434871 5.784414 -53.133229 20.596166 -5.892935 0.000000 0.000000 0.000000 
